<?xml version="1.0" encoding="utf-8"?>
<!-- Generator: Adobe Illustrator 16.0.0, SVG Export Plug-In . SVG Version: 6.00 Build 0)  -->
<!DOCTYPE svg PUBLIC "-//W3C//DTD SVG 1.1//EN" "http://www.w3.org/Graphics/SVG/1.1/DTD/svg11.dtd">
<svg version="1.1" id="Layer_1" xmlns="http://www.w3.org/2000/svg" xmlns:xlink="http://www.w3.org/1999/xlink" x="0px" y="0px"
	 width="1000px" height="1000px" viewBox="0 0 1000 1000" enable-background="new 0 0 1000 1000" xml:space="preserve">
<g>
	<path fill="none" d="M502.017,284.141c96.798,0,178.659,63.924,205.689,151.859h8.53
		c-27.305-92.743-113.062-160.448-214.648-160.448c-101.584,0-187.341,67.706-214.646,160.448h9.387
		C323.358,348.065,405.219,284.141,502.017,284.141z"/>
	<path fill="none" d="M707.586,563c-27.154,87.729-108.918,151.458-205.569,151.458S323.602,650.729,296.448,563h-9.087h-0.297
		c27.437,92.532,113.09,160.038,214.524,160.038c101.436,0,187.09-67.506,214.526-160.038h-0.297H707.586z"/>
	<path fill="#FFFFFF" d="M501.588,723.038c-101.434,0-187.087-67.506-214.524-160.038h-35.335
		c28.179,111.717,129.322,194.41,249.788,194.41c120.468,0,221.61-82.693,249.789-194.41h-35.191
		C688.678,655.532,603.023,723.038,501.588,723.038z"/>
	<path fill="#FFFFFF" d="M501.588,274.552c101.951,0,187.966,68.191,214.946,161.448h34.626
		c-28.389-111.414-129.39-193.812-249.644-193.812c-120.252,0-221.254,82.398-249.642,193.812h34.77
		C313.625,342.743,399.639,274.552,501.588,274.552z"/>
	<path fill="#A9BCF7" d="M501.588,274.552c-101.949,0-187.963,68.191-214.944,161.448h0.297
		c27.305-92.743,113.062-160.448,214.646-160.448c101.586,0,187.344,67.706,214.648,160.448h0.298
		C689.554,342.743,603.539,274.552,501.588,274.552z"/>
	<path fill="#FFFFFF" d="M502.017,284.141c-96.798,0-178.659,63.924-205.688,151.859h411.377
		C680.676,348.065,598.814,284.141,502.017,284.141z"/>
	<path fill="#FFFFFF" d="M502.017,714.458c96.651,0,178.415-63.729,205.569-151.458H296.448
		C323.602,650.729,405.365,714.458,502.017,714.458z"/>
</g>
<g>
	<polygon fill="#FFFFFF" points="839,556 161,556 201,500 161,444 839,444 799,500 	"/>
	<g>
		<path d="M275.593,467.503c20.699,0,20.789,18.899,20.789,18.899c0,12.78-11.879,18.27-14.579,18.27L296.382,535h-8.909
			l-14.399-29.699h-10.08V535h-8.1v-67.497H275.593z M275.593,497.202c12.6,0,12.689-10.8,12.689-10.8s-0.09-10.799-12.689-10.799
			h-12.6v21.599H275.593z"/>
		<path d="M360.911,467.503v8.1h-33.388v21.599h16.739v8.099h-16.739v21.6h33.388v8.1h-41.488v-67.497H360.911z"/>
		<path d="M404.651,467.503c12.6,0,20.789,3.06,20.789,16.199h-8.1c0-7.56-3.33-8.1-9.45-8.1h-3.24c-8.1,0-12.599,0-12.599,8.819
			c0,10.8,1.709,10.8,12.599,10.8h0.36c12.42,0,20.429,0.09,20.429,18.899C425.44,535,417.251,535,404.651,535
			c-12.599,0-20.699,0-20.699-16.199h8.1c0,8.01,4.5,8.1,12.419,8.1h0.18c8.1,0,12.689,0,12.689-12.779
			c0-10.71-1.71-10.8-12.149-10.8h-0.54c-12.599,0-20.699,0-20.699-18.899C383.952,467.503,392.052,467.503,404.651,467.503z"/>
		<path d="M489.969,467.503v8.1h-33.389v21.599h16.74v8.099h-16.74v21.6h33.389v8.1h-41.488v-67.497H489.969z"/>
		<path d="M554.498,535h-8.369l-4.5-18.449H525.79L521.38,535h-8.37l16.38-67.497h8.64L554.498,535z M533.709,484.242l-5.85,24.209
			h11.79L533.709,484.242z"/>
		<path d="M598.238,467.503c20.699,0,20.789,18.899,20.789,18.899c0,12.78-11.879,18.27-14.579,18.27L619.027,535h-8.91
			l-14.398-29.699h-10.08V535h-8.1v-67.497H598.238z M598.238,497.202c12.6,0,12.689-10.8,12.689-10.8s-0.09-10.799-12.689-10.799
			h-12.6v21.599H598.238z"/>
		<path d="M662.768,535c-12.6,0-20.699-8.1-20.699-33.748c0-25.649,8.1-33.749,20.699-33.749c8.1,0,20.789,0,20.789,14.399h-8.1
			c0-6.3-8.369-6.3-12.51-6.3h-0.18c-8.1,0-12.6,6.3-12.6,25.649c0,19.349,4.5,25.648,12.6,25.648h0.18c4.141,0,12.51,0,12.51-6.3
			h8.1C683.557,535,670.867,535,662.768,535z"/>
		<path d="M714.697,467.503v29.699h25.289v-29.699h8.1V535h-8.1v-29.699h-25.289V535h-8.1v-67.497H714.697z"/>
	</g>
</g>
<g>
	<g>
		<path d="M412.794,337.77c4.576,8.358,6.395,22.94-1.387,29.33c-4.447,3.65-10.733,1.782-14.922-3.447
			c-2.157-2.693-1.406-9.646-1.661-10.429c-0.09-0.277-1.991-1.251-2.719-2.206c-3.185-4.173-2.275-12.278,4.553-16.79
			C405.072,328.668,410.209,333.049,412.794,337.77z M399.854,333.94c-4.087,1.473-4.909,10.504-2.063,14.493
			c1.365,1.913,3.371,3.042,5.826,2.755c0.523-0.062,0.833,0.035,0.974,0.241c0.113,0.166,0.033,0.401-0.404,0.702
			c-1.585,1.092-3.953,1.562-5.344,1.713c0.079,0.29,0.119,0.434,0.198,0.723c0.833,3.173,2.118,6.167,3.752,8.24
			c2.237,2.837,5.973,4.851,7.253,3.852c4.833-3.771-0.425-21.539-4.692-28.801C404.292,336.051,402.067,333.143,399.854,333.94z"/>
		<path d="M427.173,356.126c-0.739,0.869,3.107,11.103,3.859,12.748c0.501,1.096-0.156,1.82-1.006,2.323
			c-0.992,0.587-2.491,0.695-3.147-0.614c-4.759-9.495-7.796-22.391-9.525-33.708c-0.199-1.304,0.756-2.46,1.902-3.061
			c1.326-0.696,2.916-0.714,3.457,0.357c0.09,0.179,0.427,2.027,0.427,2.027c0.026-0.001,1.555-6.762,4.218-7.99
			c3.778-1.742,6.507,0.346,7.913,3.661c2.305,5.432-1.062,19.766-1.062,19.766c0.094,0.083,6.367-7.189,7.196-12.835
			c0.091-0.617,0.339-1,0.631-1.117c0.233-0.093,0.482,0.025,0.611,0.351c0.092,0.232,0.118,0.453,0.101,0.766
			c-0.357,6.788-2.725,11.914-10.429,15.844C429.892,355.882,427.232,356.058,427.173,356.126z M426.567,353.381
			c0.587-0.32,1.935,0.032,2.57-0.073c2.247-0.37,2.52-14.084,0.262-18.935c-0.76-1.632-1.69-2.362-2.778-1.843
			c-2.359,1.126-2.824,6.857-1.678,13.493C425.56,348.979,425.885,350.449,426.567,353.381z"/>
		<path d="M456.22,323.34c1.325,4.614-1.079,12.257-7.234,14.449c-0.696,0.248-2.253,0.432-2.307,0.519
			c-0.245,0.397,2.303,5.503,5.795,4.298c5.351-1.845,6.806-7.828,7.761-10.214c0.229-0.571,0.471-0.858,0.771-0.939
			c0.24-0.065,0.475,0.079,0.553,0.369c0.052,0.193,0.058,0.452,0.003,0.725c-1.211,6.128-3.854,11.403-10.191,13.684
			c-4.739,1.706-8.103-1.062-9.902-5.458c-2.823-6.896-1.083-18.084,5.646-20.32c1.41-0.468,3.187-0.379,3.914-0.363
			C453.204,320.135,455.544,320.984,456.22,323.34z M446.811,336.874c3.447-1.267,6.128-10.415,4.97-14.14
			c-0.237-0.764-0.619-1.539-1.573-1.236c-3.629,1.15-5.351,14.443-3.881,15.501C446.381,337.038,446.636,336.938,446.811,336.874z"
			/>
		<path d="M463.53,342.48c-1.179,0.325-2.675-0.022-3.096-1.462c-0.042-0.144-0.04-0.312-0.069-0.448
			c-1.492-6.882-1.054-12.823-0.129-21.278c0.104-0.945,1.033-1.606,2.069-1.86c1.556-0.38,3.37,0.08,3.69,1.495
			c0.288,1.268-0.41,4.866-0.41,4.866c0.033,0.005,4.115-9.477,7.544-10.102c3.89-0.709,5.303,1.844,5.588,3.672
			c0.872,5.583-3.566,15.13-2.994,18.126c0.122,0.638,0.487,0.975,1.125,0.856c2.553-0.472,5.626-7.614,6.219-8.707
			c0.296-0.547,0.739-0.961,1.045-1.002c0.184-0.024,0.319,0.058,0.352,0.306c0.026,0.198-0.007,0.512-0.125,0.926
			c-0.522,1.829-3.53,10.756-8.481,11.72c-2.276,0.443-4.735-0.443-5.39-3.371c-0.982-4.393,3.089-14.466,2.469-17.758
			c-0.121-0.639-0.546-1.121-1.258-0.983c-2.392,0.464-6.366,9.295-6.406,18.645c-0.036,0.153-0.052,0.23-0.087,0.384
			c0.056,1.431,0.158,2.678,0.234,3.76C465.497,341.358,464.597,342.187,463.53,342.48z"/>
		<path d="M514.499,328.312c-0.097,2.448-2.323,4.37-3.147,5.155c-0.903,0.861-4.343,3.058-8.499,3.177
			c-3.001,0.086-5.817-0.582-10.857-3.954c-0.443-0.297-0.718-0.635-0.761-1.083c-0.105-1.095,1.472-2.406,3.465-2.554
			c4.107-0.305,4.948,4.524,11.711,4.476c3.646-0.026,4.615-1.419,4.639-2.569c0.081-4.049-11.988-7.031-12.373-15.072
			c-0.297-6.193,7.5-15.408,13.823-15.255c1.968,0.047,4.149,1.4,4.354,1.654c0.942,1.161,3.436,3.143,3.339,4.64
			c-0.07,1.098-0.636,2.919-2.411,9.124c-0.479,1.675-1.547,2.416-3.405,2.348c-1.666-0.061-3.129-0.689-3.094-2.488
			c0.063-3.2,4.958-7.646,5.101-10.842c0.033-0.75-0.296-1.897-0.74-2.132c-2.6-1.376-10.737,7.307-10.678,11.557
			C505.046,320.243,514.738,322.267,514.499,328.312z"/>
		<path d="M532.711,332.363c-2.089,0.742-6.143,5.113-9.426,4.803c-4.607-0.436-6.311-4.231-6.057-8.824
			c0.204-3.694,1.642-7.24,3.441-9.854c0.579-0.841,2.852-1.389,3.37-1.639c1.179-0.568,4.486-5.181,8.666-4.631
			c5.308,0.698,6.903,4.487,6.173,8.725c-0.586,3.4-5.001,10.13-5.001,10.13c0.1,0.253,4.561-0.263,6.432-2.098
			c0.433-0.424,0.828-0.71,1.254-0.627c0.183,0.036,0.346,0.17,0.297,0.416c-0.039,0.196-0.166,0.479-0.416,0.834
			C540.297,331.228,534.699,331.657,532.711,332.363z M528.79,331.328c-0.245-0.761-5.444-5.956-5.444-5.956
			c-0.089-0.002-0.953,3.18-1.076,4.625c-0.225,2.64,0.367,4.688,2.295,4.882c0.176,0.018,0.361,0.022,0.531,0.005
			C526.137,334.779,528.915,331.717,528.79,331.328z M526.57,321.966c-0.309,2.934,2.569,7.868,3.156,7.718
			c0.955-0.244,3.416-7.666,3.871-10.884c0.364-2.575,0.044-4.544-1.533-4.749C529.832,313.762,527.024,317.64,526.57,321.966z"/>
		<path d="M543.45,334.652c-0.282,1.32-0.034,2.138,0.834,2.33c3.358,0.743,7.845-8.099,13.418-17.28
			c0.887-1.46,2.646-1.761,4.198-1.304c1.423,0.419,2.552,1.559,2.165,2.8c-0.596,1.91-9.681,13.826-10.609,17.15
			c-0.242,0.867-0.132,1.363,0.381,1.509c2.056,0.584,7.471-4.428,8.461-5.262c0.541-0.455,0.977-0.575,1.272-0.477
			c0.237,0.079,0.366,0.281,0.255,0.613c-0.063,0.189-0.227,0.455-0.506,0.728c-1.376,1.346-7.533,7.969-12.257,6.69
			c-1.687-0.457-2.829-5.068-2.829-5.068c-0.116-0.063-4.398,3.267-6.729,2.782c-3.184-0.662-3.888-2.946-3.316-6.095
			c0.865-4.772,4.792-11.432,7.261-17.037c0.637-1.446,2.487-1.787,3.993-1.451c1.441,0.322,2.661,1.282,2.382,2.45
			c-0.035,0.146-0.102,0.345-0.184,0.472C547.524,324.587,544.129,331.474,543.45,334.652z"/>
		<path d="M561.933,343.91c-0.524,0.983-1.645,1.184-2.589,0.875c-1.055-0.346-1.9-1.346-1.452-2.777
			c1.047-3.34,5.95-12.154,11.296-18.446c0.591-0.695,1.741-0.722,2.815-0.336c1.454,0.522,2.804,1.889,2.308,3.198
			c-0.302,0.795-2.104,2.414-2.104,2.414c0.016,0.016,7.389-4.296,10.456-2.992c2.315,0.984,2.733,2.393,1.856,4.356
			c-1.143,2.557-5.867,5.568-6.554,7.178c-0.274,0.644,0.032,1.208,0.902,1.588c1.914,0.835,5.867-1.374,7.652-2.667
			c0.673-0.487,1.287-0.715,1.644-0.543c0.654,0.316-0.051,1.146-0.314,1.403c-2.128,2.075-7.339,4.613-11.31,2.927
			c-2.303-0.978-4.2-2.633-3.104-5.426c1.005-2.56,4.921-4.598,5.51-6.032c0.133-0.324,0.043-0.631-0.39-0.807
			c-2.102-0.854-9.706,3.935-13.987,11.392C563.501,341.086,562.978,342.026,561.933,343.91z"/>
		<path d="M599.699,336.508c-3.331-1.852-12.065,4.334-14.818,9.891c-1.487,3.002-1.311,5.351,1.517,6.846
			c4.215,2.229,10.57,0.25,13.503-1.271c0.555-0.288,0.99-0.27,1.262-0.101c0.218,0.135,0.3,0.366,0.114,0.663
			c-0.105,0.169-0.295,0.364-0.558,0.534c-3.903,2.529-11.274,4.935-17.334,1.818c-5.27-2.71-5.705-7.31-3.602-11.957
			c3.072-6.788,12.246-12.845,18.715-9.358c1.329,0.717,2.285,2.047,2.788,2.621c1.625,1.854,2.145,4.712,0.767,7.035
			c-1.838,3.096-4.512,5.078-7.529,3.392c-1.285-0.718-2.215-1.956-1.789-2.749c0.946-1.763,5.382-1.254,7.428-4.865
			C600.68,338.092,600.294,336.838,599.699,336.508z"/>
		<path d="M621.635,355.109c-2.938,3.795-10.697,6.238-16.272,2.47c-0.631-0.426-1.735-1.596-1.842-1.587
			c-0.469,0.041-3.063,5.115,0.075,7.283c4.808,3.321,10.617,1.056,13.167,0.462c0.609-0.142,0.995-0.105,1.25,0.098
			c0.204,0.163,0.23,0.441,0.043,0.676c-0.125,0.156-0.331,0.311-0.588,0.424c-5.761,2.558-11.743,3.421-17.5-0.44
			c-4.304-2.887-4.096-7.247-1.627-11.306c3.872-6.366,13.987-11.56,19.978-7.318c1.256,0.889,2.289,2.41,2.729,3.024
			C622.378,350.75,623.135,353.171,621.635,355.109z M604.771,355.257c3.146,2.081,12.271-1.054,14.589-4.191
			c0.476-0.644,0.869-1.412,0.028-2.025c-3.193-2.33-15.042,4.111-15.019,5.893C604.37,355,604.61,355.151,604.771,355.257z"/>
	</g>
</g>
<g>
	<g>
		<path d="M376.753,646.832c2.395-2.579,3.592-3.869,5.987-6.448c-2.082-1.938-3.107-2.933-5.127-4.97
			c-2.498,2.479-3.748,3.72-6.245,6.199c-1.441-1.453-2.154-2.19-3.564-3.692c5.509-5.173,8.264-7.759,13.773-12.932
			c1.266,1.348,1.906,2.01,3.199,3.314c-1.854,1.841-2.781,2.76-4.635,4.601c1.979,1.996,2.984,2.971,5.023,4.869
			c1.778-1.914,2.667-2.873,4.445-4.787c1.333,1.24,2.005,1.85,3.363,3.047c-4.989,5.677-7.483,8.515-12.473,14.191
			C378.987,648.892,378.238,648.214,376.753,646.832z"/>
		<path d="M404.975,663.133c-2.352-1.515-3.516-2.297-5.819-3.911c-1.564,1.093-2.353,1.631-3.941,2.699
			c-1.7-1.215-2.545-1.837-4.218-3.105c7.047-4.142,10.46-6.343,17.048-10.972c1.609,1.116,2.421,1.66,4.055,2.724
			c-1.794,7.852-2.548,11.842-3.757,19.912c-1.776-1.053-2.66-1.592-4.412-2.698C404.333,665.915,404.543,664.987,404.975,663.133z
			 M401.778,657.364c1.558,1.078,2.343,1.605,3.923,2.637c0.211-0.829,0.318-1.245,0.536-2.072c0.508-1.896,1.57-5.311,1.57-5.311
			c-0.024-0.016-2.719,2.335-4.291,3.483C402.824,656.608,402.476,656.862,401.778,657.364z"/>
		<path d="M419.923,676.788c3.375-6.765,5.063-10.146,8.438-16.911c2.758,1.376,4.15,2.029,6.957,3.27
			c3.797,1.678,5.382,4.852,3.986,8.393c-0.891,2.261-2.614,3.532-4.817,3.731c0.286,3.333,0.463,5.006,0.879,8.354
			c-1.942-0.755-2.91-1.146-4.833-1.958c-0.196-2.907-0.271-4.356-0.375-7.249c-1.277-0.565-1.915-0.854-3.183-1.446
			c-1.102,2.358-1.651,3.536-2.753,5.895C422.495,678.059,421.634,677.642,419.923,676.788z M435.355,669.928
			c0.673-1.592-0.109-2.966-2.074-3.843c-1.021-0.456-1.531-0.69-2.546-1.164c-0.91,1.947-1.363,2.921-2.272,4.868
			c1.047,0.489,1.573,0.73,2.626,1.201C433.086,671.882,434.682,671.52,435.355,669.928z"/>
		<path d="M448.268,688.093c2.215-7.228,3.322-10.843,5.537-18.07c2.509,0.766,3.771,1.126,6.303,1.79
			c6.387,1.676,9.928,5.06,8.685,11.418c-1.187,6.067-6.349,8.694-12.605,7.086C453.005,689.498,451.419,689.055,448.268,688.093z
			 M464.381,682.286c0.909-4.084-1.009-5.936-5.182-7.03c-0.893-0.234-1.339-0.355-2.229-0.603
			c-1.265,4.547-1.898,6.822-3.163,11.369c1.254,0.348,1.882,0.517,3.141,0.841C460.943,687.894,463.549,686.028,464.381,682.286z"
			/>
		<path d="M510.771,696.229c-6.59,0.298-11.659-4.184-11.562-9.554c0.096-5.316,4.84-9.569,10.679-9.833
			c3.303-0.149,5.966,0.854,8.206,2.786c-1.18,1.107-1.779,1.656-2.998,2.742c-1.434-1.139-3.108-1.921-5.067-1.833
			c-3.588,0.161-6.347,2.787-6.32,6.161c0.026,3.428,3.021,6.011,6.863,5.838c2.131-0.096,3.854-1.129,5.188-2.556
			c1.473,0.843,2.217,1.262,3.725,2.074C517.528,694.408,514.724,696.051,510.771,696.229z"/>
		<path d="M529.774,684.561c-0.832-5.252,3.194-10.277,8.952-11.567c5.699-1.277,11.556,1.531,13.057,6.634
			c1.516,5.154-2.424,10.873-8.791,12.3C536.56,693.368,530.615,689.865,529.774,684.561z M547.296,680.877
			c-0.914-3.444-4.197-5.156-7.774-4.354c-3.607,0.809-5.823,3.78-5.177,7.257c0.656,3.53,3.985,5.485,7.853,4.619
			C546.032,687.539,548.21,684.32,547.296,680.877z"/>
		<path d="M567.706,684.256c-2.674-7.07-4.013-10.606-6.689-17.677c2.466-0.931,3.692-1.422,6.126-2.454
			c6.141-2.604,11.095-2.139,14.014,3.647c2.785,5.521,0.234,10.803-5.764,13.383C572.341,682.468,570.802,683.087,567.706,684.256z
			 M577.022,669.76c-1.786-3.784-4.479-4.057-8.489-2.356c-0.859,0.364-1.289,0.547-2.152,0.898
			c1.785,4.369,2.68,6.557,4.463,10.926c1.215-0.495,1.819-0.75,3.026-1.269C577.703,676.313,578.659,673.227,577.022,669.76z"/>
		<path d="M597.954,669.533c-3.912-6.468-5.87-9.7-9.784-16.168c4.447-2.695,6.631-4.136,10.899-7.212
			c0.8,1.113,1.199,1.67,1.999,2.783c-2.904,2.093-4.377,3.097-7.364,5.018c0.816,1.272,1.227,1.908,2.043,3.181
			c2.14-1.376,3.198-2.084,5.297-3.547c0.776,1.117,1.164,1.676,1.94,2.793c-2.141,1.491-3.221,2.214-5.402,3.617
			c1.05,1.637,1.574,2.453,2.623,4.09c3.199-2.058,4.777-3.132,7.889-5.374c0.8,1.113,1.202,1.672,2.002,2.785
			C605.341,664.926,602.908,666.53,597.954,669.533z"/>
		<path d="M622.084,652.08c-4.9-5.753-7.354-8.63-12.255-14.383c2.096-1.791,3.132-2.71,5.169-4.603
			c5.139-4.774,10.134-6.24,14.855-1.806c4.506,4.231,3.718,10.284-1.292,14.988C626.013,648.671,624.717,649.83,622.084,652.08z
			 M626.458,634.77c-2.969-2.947-5.681-2.182-9.039,0.938c-0.719,0.668-1.08,0.997-1.806,1.652c3.157,3.507,4.735,5.263,7.892,8.77
			c1.022-0.923,1.531-1.392,2.54-2.337C629.247,640.79,629.178,637.47,626.458,634.77z"/>
	</g>
</g>
<path d="M488.123,616.643c-3.27-5.766-1.044-14.81,5.72-21.576c5.46-5.458,19.603-8.213,23.726-4.09
	c0.007,0.007,0.014,0.015,0.021,0.021c-1.085,3.158-5.643,8.62-16.002,12.252C492.097,606.58,489.537,613.131,488.123,616.643z
	 M519.745,594.252c-0.822,1.917-2.902,3.122-5.368,5.587c-2.477,2.479-6,4.913-10.988,6.663
	c-10.124,3.551-11.871,10.327-12.659,13.145c0.037,0.037,0.498,0.356-0.977-0.853c5.423,5.423,16.046,3.592,23.727-4.091
	C520.314,607.868,523.163,600.007,519.745,594.252z"/>
<g>
	<path d="M429.655,597.75h7.815v1.351h-6.015v3.375h3.12v1.8h-3.12v3.375h6.015V609h-7.815V597.75z"/>
	<path d="M440.185,600.69c0-2.88,1.575-2.94,3.9-2.94c2.355,0,3.915,0.48,3.915,2.476v0.225h-1.8v-0.225
		c0-1.11-0.39-1.125-1.515-1.125h-0.6h-0.27c-1.335,0-1.83,0.045-1.83,1.35c0,1.59,0.06,1.695,1.41,1.695h0.69h0.06
		c2.295,0,3.855,0.09,3.855,3.27c0,3.495-1.56,3.585-3.915,3.585c-2.31,0-3.9-0.045-3.9-2.475V606.3h1.8v0.226
		c0,1.109,0.525,1.125,1.95,1.125h0.12h0.03h0.375c1.215,0,1.74-0.09,1.74-2.025c0-1.59-0.075-1.68-1.41-1.68h-0.6h-0.105
		C441.745,603.945,440.185,603.87,440.185,600.69z"/>
	<path d="M450.714,597.75h7.815v1.65h-2.895l0.12,9.6h-1.8l-0.33-9.6h-2.91V597.75z"/>
	<path d="M466.269,607.65c0,0.81-0.765,1.574-1.575,1.574c-0.81,0-1.56-0.765-1.56-1.574c0-0.811,0.75-1.575,1.56-1.575
		C465.504,606.075,466.269,606.84,466.269,607.65z"/>
	<path d="M540.562,603.285h-2.279l4.545-5.535h2.055V609h-1.801v-8.564L540.562,603.285z"/>
	<path d="M554.827,604.41c-0.555,0.3-1.335,0.54-2.114,0.54c-2.445,0-3.9-1.425-3.9-3.6s1.455-3.601,3.9-3.601
		c2.444,0,3.914,1.41,3.914,3.57V609h-1.8V604.41z M552.713,599.101c-1.381,0-2.101,0.689-2.101,2.01s0.72,2.04,2.101,2.04
		c1.379,0,2.114-0.72,2.114-2.04S554.092,599.101,552.713,599.101z"/>
	<path d="M565.357,604.41c-0.555,0.3-1.336,0.54-2.115,0.54c-2.445,0-3.9-1.425-3.9-3.6s1.455-3.601,3.9-3.601
		s3.915,1.41,3.915,3.57V609h-1.8V604.41z M563.242,599.101c-1.38,0-2.1,0.689-2.1,2.01s0.72,2.04,2.1,2.04s2.115-0.72,2.115-2.04
		S564.622,599.101,563.242,599.101z"/>
	<path d="M577.688,597.75V609h-1.801v-4.05h-6.015v-1.62l5.805-5.58H577.688z M575.887,603.15v-3.18l-3.345,3.18H575.887z"/>
</g>
<g>
	<path d="M417.085,408v-14.003h5.101c2.76,0,4.521,1.78,4.521,4.601c0,1.8-0.72,3.141-1.94,3.901l2.4,5.501h-3.121l-1.96-4.821
		h-2.161V408H417.085z M423.966,398.598c0-1.28-0.82-2-2.221-2h-1.82v3.981h1.82C423.126,400.579,423.966,399.878,423.966,398.598z"
		/>
	<path d="M446.285,408v-14.003h8.521v2.541h-5.681v2.801h3.981v2.521h-3.981v3.601h5.681V408H446.285z"/>
	<path d="M473.324,405.5l2.301-1.641c0.56,1.101,1.44,1.681,2.46,1.681c0.92,0,1.56-0.62,1.56-1.48c0-2.081-5.401-2.88-5.401-6.661
		c0-2.121,1.8-3.601,3.781-3.601c1.581,0,2.741,0.72,3.481,1.86l-1.92,1.701c-0.36-0.541-0.86-0.96-1.44-0.96
		s-1.021,0.42-1.021,1.021c0,1.76,5.381,2.66,5.381,6.601c0,2.4-1.84,4.161-4.441,4.161
		C476.085,408.18,474.265,407.36,473.324,405.5z"/>
	<path d="M502.285,408v-11.362h-2.681v-2.641h8.242v2.641h-2.68V408H502.285z"/>
	<path d="M526.364,408v-14.003h7.361v2.641h-4.521v2.701h3.08v2.64h-3.08V408H526.364z"/>
	<path d="M559.546,403.199v-9.202h2.881v9.022c0,3.641-2.32,5.181-4.861,5.181c-2.521,0-4.841-1.541-4.841-5.181v-9.022h2.881v9.202
		c0,1.48,0.84,2.36,1.96,2.36C558.706,405.56,559.546,404.679,559.546,403.199z"/>
	<path d="M582.024,408v-14.003h2.841v11.402h4.94V408H582.024z"/>
</g>
</svg>
