<?xml version="1.0" encoding="utf-8"?>
<!-- Generator: Adobe Illustrator 16.0.0, SVG Export Plug-In . SVG Version: 6.00 Build 0)  -->
<!DOCTYPE svg PUBLIC "-//W3C//DTD SVG 1.1//EN" "http://www.w3.org/Graphics/SVG/1.1/DTD/svg11.dtd">
<svg version="1.1" id="Layer_1" xmlns="http://www.w3.org/2000/svg" xmlns:xlink="http://www.w3.org/1999/xlink" x="0px" y="0px"
	 width="1000px" height="1000px" viewBox="0 0 1000 1000" enable-background="new 0 0 1000 1000" xml:space="preserve">
<g>
	<path fill="none" d="M502.017,284.141c96.798,0,178.659,63.924,205.689,151.859h8.53
		c-27.305-92.743-113.062-160.448-214.648-160.448c-101.584,0-187.341,67.706-214.646,160.448h9.387
		C323.358,348.065,405.219,284.141,502.017,284.141z"/>
	<path fill="none" d="M707.586,563c-27.154,87.729-108.918,151.458-205.569,151.458S323.602,650.729,296.448,563h-9.087h-0.297
		c27.437,92.532,113.09,160.038,214.524,160.038c101.436,0,187.09-67.506,214.526-160.038h-0.297H707.586z"/>
	<path d="M501.588,723.038c-101.434,0-187.087-67.506-214.524-160.038h-35.335c28.179,111.717,129.322,194.41,249.788,194.41
		c120.468,0,221.61-82.693,249.789-194.41h-35.191C688.678,655.532,603.023,723.038,501.588,723.038z"/>
	<path d="M501.588,274.552c101.951,0,187.966,68.191,214.946,161.448h34.626c-28.389-111.414-129.39-193.812-249.644-193.812
		c-120.252,0-221.254,82.398-249.642,193.812h34.77C313.625,342.743,399.639,274.552,501.588,274.552z"/>
	<path fill="#564308" d="M501.588,274.552c-101.949,0-187.963,68.191-214.944,161.448h0.297
		c27.305-92.743,113.062-160.448,214.646-160.448c101.586,0,187.344,67.706,214.648,160.448h0.298
		C689.554,342.743,603.539,274.552,501.588,274.552z"/>
	<path d="M502.017,284.141c-96.798,0-178.659,63.924-205.688,151.859h411.377C680.676,348.065,598.814,284.141,502.017,284.141z"/>
	<path d="M502.017,714.458c96.651,0,178.415-63.729,205.569-151.458H296.448C323.602,650.729,405.365,714.458,502.017,714.458z"/>
</g>
<polygon points="839,556 161,556 201,500 161,444 839,444 799,500 "/>
<text transform="matrix(1 0 0 1 247.8745 535)" fill="#FFFFFF" font-family="'Hermit-medium'" font-size="90" letter-spacing="9">RESEARCH</text>
<g>
	<g>
		<path fill="#FFFFFF" d="M412.794,336.396c4.577,8.359,6.393,22.94-1.387,29.33c-4.446,3.651-10.733,1.781-14.922-3.448
			c-2.157-2.693-1.406-9.647-1.661-10.43c-0.09-0.277-1.991-1.25-2.719-2.204c-3.185-4.173-2.275-12.278,4.553-16.791
			C405.072,327.292,410.209,331.675,412.794,336.396z M399.854,332.565c-4.087,1.473-4.909,10.503-2.063,14.493
			c1.365,1.913,3.371,3.042,5.826,2.754c0.523-0.062,0.833,0.037,0.974,0.243c0.113,0.166,0.033,0.401-0.404,0.702
			c-1.585,1.092-3.953,1.561-5.344,1.712c0.079,0.29,0.119,0.435,0.198,0.724c0.833,3.173,2.118,6.167,3.752,8.239
			c2.237,2.837,5.973,4.851,7.253,3.852c4.833-3.771-0.426-21.539-4.692-28.801C404.292,334.675,402.067,331.768,399.854,332.565z"
			/>
		<path fill="#FFFFFF" d="M427.173,354.75c-0.739,0.869,3.107,11.104,3.859,12.749c0.501,1.096-0.156,1.819-1.006,2.323
			c-0.992,0.587-2.491,0.696-3.147-0.613c-4.759-9.495-7.796-22.391-9.525-33.71c-0.199-1.304,0.756-2.46,1.902-3.062
			c1.326-0.696,2.916-0.712,3.457,0.359c0.09,0.179,0.427,2.027,0.427,2.027c0.026-0.001,1.555-6.76,4.218-7.988
			c3.778-1.742,6.507,0.344,7.913,3.658c2.305,5.432-1.062,19.768-1.062,19.768c0.094,0.083,6.367-7.19,7.196-12.835
			c0.091-0.617,0.339-0.999,0.631-1.115c0.233-0.093,0.482,0.023,0.611,0.349c0.092,0.232,0.118,0.454,0.101,0.767
			c-0.357,6.788-2.725,11.915-10.429,15.845C429.892,354.508,427.232,354.682,427.173,354.75z M426.567,352.006
			c0.587-0.32,1.935,0.032,2.57-0.073c2.247-0.37,2.52-14.088,0.262-18.938c-0.76-1.632-1.69-2.36-2.778-1.84
			c-2.359,1.126-2.824,6.857-1.678,13.493C425.56,347.603,425.885,349.075,426.567,352.006z"/>
		<path fill="#FFFFFF" d="M456.22,321.965c1.325,4.614-1.079,12.257-7.234,14.448c-0.696,0.248-2.253,0.432-2.307,0.519
			c-0.245,0.397,2.303,5.504,5.795,4.299c5.351-1.846,6.806-7.829,7.761-10.216c0.229-0.571,0.471-0.857,0.771-0.938
			c0.24-0.065,0.475,0.077,0.553,0.367c0.052,0.193,0.058,0.452,0.003,0.726c-1.211,6.128-3.854,11.403-10.191,13.685
			c-4.739,1.706-8.103-1.062-9.902-5.458c-2.823-6.896-1.083-18.083,5.646-20.319c1.41-0.468,3.187-0.379,3.914-0.364
			C453.204,318.76,455.544,319.609,456.22,321.965z M446.811,335.499c3.447-1.267,6.128-10.414,4.97-14.139
			c-0.237-0.764-0.619-1.54-1.573-1.237c-3.629,1.15-5.351,14.442-3.881,15.5C446.381,335.662,446.636,335.563,446.811,335.499z"/>
		<path fill="#FFFFFF" d="M463.53,341.104c-1.179,0.325-2.675-0.021-3.096-1.461c-0.042-0.144-0.04-0.312-0.069-0.448
			c-1.492-6.882-1.054-12.822-0.129-21.278c0.104-0.945,1.033-1.608,2.069-1.862c1.556-0.38,3.37,0.081,3.69,1.495
			c0.288,1.268-0.41,4.866-0.41,4.866c0.033,0.005,4.115-9.475,7.544-10.1c3.89-0.709,5.303,1.842,5.588,3.67
			c0.872,5.583-3.566,15.13-2.994,18.126c0.122,0.638,0.487,0.976,1.125,0.857c2.553-0.472,5.626-7.615,6.219-8.708
			c0.296-0.547,0.739-0.962,1.045-1.003c0.184-0.024,0.319,0.059,0.352,0.307c0.026,0.198-0.007,0.511-0.125,0.925
			c-0.522,1.829-3.53,10.757-8.481,11.721c-2.276,0.443-4.735-0.442-5.39-3.37c-0.982-4.393,3.089-14.468,2.469-17.76
			c-0.121-0.639-0.546-1.119-1.258-0.981c-2.392,0.464-6.366,9.293-6.406,18.643c-0.036,0.154-0.052,0.231-0.087,0.385
			c0.056,1.431,0.158,2.678,0.234,3.761C465.497,339.982,464.597,340.81,463.53,341.104z"/>
		<path fill="#FFFFFF" d="M514.499,326.937c-0.097,2.448-2.323,4.37-3.147,5.155c-0.903,0.861-4.343,3.059-8.499,3.178
			c-3.001,0.086-5.817-0.582-10.857-3.953c-0.443-0.297-0.718-0.636-0.761-1.084c-0.105-1.095,1.472-2.405,3.465-2.553
			c4.107-0.305,4.948,4.524,11.711,4.476c3.646-0.026,4.615-1.419,4.639-2.569c0.081-4.049-11.988-7.032-12.373-15.073
			c-0.297-6.193,7.5-15.407,13.823-15.254c1.968,0.047,4.149,1.4,4.354,1.654c0.942,1.161,3.436,3.143,3.339,4.64
			c-0.07,1.098-0.636,2.919-2.411,9.124c-0.479,1.675-1.547,2.416-3.405,2.348c-1.666-0.061-3.129-0.689-3.094-2.489
			c0.063-3.2,4.958-7.646,5.101-10.843c0.033-0.749-0.296-1.898-0.74-2.133c-2.6-1.376-10.737,7.309-10.678,11.558
			C505.046,318.868,514.738,320.891,514.499,326.937z"/>
		<path fill="#FFFFFF" d="M532.711,330.987c-2.089,0.742-6.143,5.114-9.426,4.804c-4.607-0.436-6.311-4.233-6.057-8.826
			c0.204-3.694,1.642-7.239,3.441-9.854c0.579-0.841,2.852-1.388,3.37-1.638c1.179-0.568,4.486-5.18,8.666-4.63
			c5.308,0.698,6.903,4.484,6.173,8.722c-0.586,3.4-5.001,10.13-5.001,10.13c0.1,0.253,4.561-0.263,6.432-2.098
			c0.433-0.424,0.828-0.71,1.254-0.627c0.183,0.036,0.346,0.17,0.297,0.415c-0.039,0.196-0.166,0.481-0.416,0.837
			C540.297,329.854,534.699,330.281,532.711,330.987z M528.79,329.952c-0.245-0.761-5.444-5.956-5.444-5.956
			c-0.089-0.002-0.953,3.179-1.076,4.624c-0.225,2.64,0.367,4.689,2.295,4.883c0.176,0.018,0.361,0.021,0.531,0.003
			C526.137,333.402,528.915,330.341,528.79,329.952z M526.57,320.59c-0.309,2.934,2.569,7.867,3.156,7.717
			c0.955-0.244,3.416-7.665,3.871-10.882c0.364-2.575,0.044-4.545-1.533-4.749C529.832,312.387,527.024,316.264,526.57,320.59z"/>
		<path fill="#FFFFFF" d="M543.45,333.276c-0.282,1.32-0.034,2.139,0.834,2.331c3.358,0.743,7.845-8.1,13.418-17.281
			c0.887-1.46,2.646-1.759,4.198-1.302c1.423,0.419,2.552,1.557,2.165,2.798c-0.596,1.91-9.681,13.826-10.609,17.15
			c-0.242,0.867-0.132,1.363,0.381,1.508c2.056,0.584,7.471-4.428,8.461-5.262c0.541-0.455,0.977-0.575,1.272-0.476
			c0.237,0.079,0.366,0.28,0.255,0.612c-0.063,0.189-0.227,0.455-0.506,0.728c-1.376,1.346-7.533,7.97-12.257,6.69
			c-1.687-0.457-2.829-5.068-2.829-5.068c-0.116-0.063-4.398,3.266-6.729,2.781c-3.184-0.663-3.888-2.945-3.316-6.094
			c0.865-4.772,4.792-11.432,7.261-17.037c0.637-1.446,2.487-1.785,3.993-1.449c1.441,0.322,2.661,1.282,2.382,2.449
			c-0.035,0.146-0.102,0.344-0.184,0.471C547.524,323.211,544.129,330.098,543.45,333.276z"/>
		<path fill="#FFFFFF" d="M561.933,342.534c-0.524,0.983-1.645,1.186-2.589,0.876c-1.055-0.346-1.9-1.346-1.452-2.778
			c1.047-3.34,5.95-12.154,11.296-18.446c0.591-0.695,1.741-0.723,2.815-0.337c1.454,0.522,2.804,1.889,2.308,3.198
			c-0.302,0.795-2.104,2.415-2.104,2.415c0.016,0.016,7.389-4.297,10.456-2.993c2.315,0.984,2.733,2.393,1.856,4.356
			c-1.143,2.557-5.867,5.568-6.554,7.178c-0.274,0.644,0.032,1.209,0.902,1.588c1.914,0.835,5.867-1.375,7.652-2.668
			c0.673-0.487,1.287-0.714,1.644-0.542c0.654,0.316-0.051,1.147-0.314,1.404c-2.128,2.075-7.339,4.613-11.31,2.927
			c-2.303-0.978-4.2-2.633-3.104-5.426c1.005-2.56,4.921-4.6,5.51-6.034c0.133-0.324,0.043-0.63-0.39-0.806
			c-2.102-0.854-9.706,3.936-13.987,11.393C563.501,339.712,562.978,340.65,561.933,342.534z"/>
		<path fill="#FFFFFF" d="M599.699,335.133c-3.331-1.852-12.065,4.334-14.818,9.891c-1.487,3.002-1.311,5.35,1.517,6.845
			c4.215,2.229,10.57,0.249,13.503-1.272c0.555-0.288,0.99-0.269,1.262-0.1c0.218,0.135,0.3,0.364,0.114,0.661
			c-0.105,0.169-0.295,0.365-0.558,0.536c-3.903,2.529-11.274,4.934-17.334,1.817c-5.27-2.71-5.705-7.308-3.602-11.956
			c3.072-6.788,12.246-12.846,18.715-9.359c1.329,0.717,2.285,2.047,2.788,2.621c1.625,1.854,2.145,4.712,0.767,7.034
			c-1.838,3.096-4.512,5.079-7.529,3.393c-1.285-0.718-2.215-1.955-1.789-2.748c0.946-1.763,5.382-1.254,7.428-4.865
			C600.68,336.717,600.294,335.464,599.699,335.133z"/>
		<path fill="#FFFFFF" d="M621.635,353.733c-2.938,3.795-10.697,6.239-16.272,2.47c-0.631-0.426-1.735-1.596-1.842-1.587
			c-0.469,0.041-3.063,5.115,0.075,7.283c4.808,3.321,10.617,1.056,13.167,0.462c0.609-0.142,0.995-0.105,1.25,0.098
			c0.204,0.163,0.23,0.442,0.043,0.676c-0.125,0.156-0.331,0.311-0.588,0.425c-5.761,2.558-11.743,3.42-17.5-0.44
			c-4.304-2.887-4.096-7.248-1.627-11.307c3.872-6.366,13.987-11.561,19.978-7.319c1.256,0.889,2.289,2.411,2.729,3.024
			C622.378,349.373,623.135,351.795,621.635,353.733z M604.771,353.882c3.146,2.081,12.271-1.056,14.589-4.194
			c0.476-0.644,0.869-1.411,0.028-2.024c-3.193-2.33-15.042,4.111-15.019,5.893C604.37,353.624,604.61,353.776,604.771,353.882z"/>
	</g>
</g>
<g>
	<g>
		<path fill="#FFFFFF" d="M376.753,646.832c2.395-2.579,3.592-3.869,5.987-6.448c-2.082-1.938-3.107-2.933-5.127-4.97
			c-2.498,2.479-3.748,3.72-6.245,6.199c-1.441-1.453-2.154-2.19-3.564-3.692c5.509-5.173,8.264-7.759,13.773-12.932
			c1.266,1.348,1.906,2.01,3.199,3.314c-1.854,1.841-2.781,2.76-4.635,4.601c1.979,1.996,2.984,2.971,5.023,4.869
			c1.778-1.914,2.667-2.873,4.445-4.787c1.333,1.24,2.005,1.85,3.363,3.047c-4.989,5.677-7.483,8.515-12.473,14.191
			C378.987,648.892,378.238,648.214,376.753,646.832z"/>
		<path fill="#FFFFFF" d="M404.975,663.133c-2.352-1.515-3.516-2.297-5.819-3.911c-1.564,1.093-2.353,1.631-3.941,2.699
			c-1.7-1.215-2.545-1.837-4.218-3.105c7.047-4.142,10.46-6.343,17.048-10.972c1.609,1.116,2.421,1.66,4.055,2.724
			c-1.794,7.852-2.548,11.842-3.757,19.912c-1.776-1.053-2.66-1.592-4.412-2.698C404.333,665.915,404.543,664.987,404.975,663.133z
			 M401.778,657.364c1.558,1.078,2.343,1.605,3.923,2.637c0.211-0.829,0.318-1.245,0.536-2.072c0.508-1.896,1.57-5.311,1.57-5.311
			c-0.024-0.016-2.719,2.335-4.291,3.483C402.824,656.608,402.476,656.862,401.778,657.364z"/>
		<path fill="#FFFFFF" d="M419.923,676.788c3.375-6.765,5.063-10.146,8.438-16.911c2.758,1.376,4.15,2.029,6.957,3.27
			c3.797,1.678,5.382,4.852,3.986,8.393c-0.891,2.261-2.614,3.532-4.817,3.731c0.286,3.333,0.463,5.006,0.879,8.354
			c-1.942-0.755-2.91-1.146-4.833-1.958c-0.196-2.907-0.271-4.356-0.375-7.249c-1.277-0.565-1.915-0.854-3.183-1.446
			c-1.102,2.358-1.651,3.536-2.753,5.895C422.495,678.059,421.634,677.642,419.923,676.788z M435.355,669.928
			c0.673-1.592-0.109-2.966-2.074-3.843c-1.021-0.456-1.531-0.69-2.546-1.164c-0.91,1.947-1.363,2.921-2.272,4.868
			c1.047,0.489,1.573,0.73,2.626,1.201C433.086,671.882,434.682,671.52,435.355,669.928z"/>
		<path fill="#FFFFFF" d="M448.268,688.093c2.215-7.228,3.322-10.843,5.537-18.07c2.509,0.766,3.771,1.126,6.303,1.79
			c6.387,1.676,9.928,5.06,8.685,11.418c-1.187,6.067-6.349,8.694-12.605,7.086C453.005,689.498,451.419,689.055,448.268,688.093z
			 M464.381,682.286c0.909-4.084-1.009-5.936-5.182-7.03c-0.893-0.234-1.339-0.355-2.229-0.603
			c-1.265,4.547-1.898,6.822-3.163,11.369c1.254,0.348,1.882,0.517,3.141,0.841C460.943,687.894,463.549,686.028,464.381,682.286z"
			/>
		<path fill="#FFFFFF" d="M510.771,696.229c-6.59,0.298-11.659-4.184-11.562-9.554c0.096-5.316,4.84-9.569,10.679-9.833
			c3.303-0.149,5.966,0.854,8.206,2.786c-1.18,1.107-1.779,1.656-2.998,2.742c-1.434-1.139-3.108-1.921-5.067-1.833
			c-3.588,0.161-6.347,2.787-6.32,6.161c0.026,3.428,3.021,6.011,6.863,5.838c2.131-0.096,3.854-1.129,5.188-2.556
			c1.473,0.843,2.217,1.262,3.725,2.074C517.528,694.408,514.724,696.051,510.771,696.229z"/>
		<path fill="#FFFFFF" d="M529.774,684.561c-0.832-5.252,3.194-10.277,8.952-11.567c5.699-1.277,11.556,1.531,13.057,6.634
			c1.516,5.154-2.424,10.873-8.791,12.3C536.56,693.368,530.615,689.865,529.774,684.561z M547.296,680.877
			c-0.914-3.444-4.197-5.156-7.774-4.354c-3.607,0.809-5.823,3.78-5.177,7.257c0.656,3.53,3.985,5.485,7.853,4.619
			C546.032,687.539,548.21,684.32,547.296,680.877z"/>
		<path fill="#FFFFFF" d="M567.706,684.256c-2.674-7.07-4.013-10.606-6.689-17.677c2.466-0.931,3.692-1.422,6.126-2.454
			c6.141-2.604,11.095-2.139,14.014,3.647c2.785,5.521,0.234,10.803-5.764,13.383C572.341,682.468,570.802,683.087,567.706,684.256z
			 M577.022,669.76c-1.786-3.784-4.479-4.057-8.489-2.356c-0.859,0.364-1.289,0.547-2.152,0.898
			c1.785,4.369,2.68,6.557,4.463,10.926c1.215-0.495,1.819-0.75,3.026-1.269C577.703,676.313,578.659,673.227,577.022,669.76z"/>
		<path fill="#FFFFFF" d="M597.954,669.533c-3.912-6.468-5.87-9.7-9.784-16.168c4.447-2.695,6.631-4.136,10.899-7.212
			c0.8,1.113,1.199,1.67,1.999,2.783c-2.904,2.093-4.377,3.097-7.364,5.018c0.816,1.272,1.227,1.908,2.043,3.181
			c2.14-1.376,3.198-2.084,5.297-3.547c0.776,1.117,1.164,1.676,1.94,2.793c-2.141,1.491-3.221,2.214-5.402,3.617
			c1.05,1.637,1.574,2.453,2.623,4.09c3.199-2.058,4.777-3.132,7.889-5.374c0.8,1.113,1.202,1.672,2.002,2.785
			C605.341,664.926,602.908,666.53,597.954,669.533z"/>
		<path fill="#FFFFFF" d="M622.084,652.08c-4.9-5.753-7.354-8.63-12.255-14.383c2.096-1.791,3.132-2.71,5.169-4.603
			c5.139-4.774,10.134-6.24,14.855-1.806c4.506,4.231,3.718,10.284-1.292,14.988C626.013,648.671,624.717,649.83,622.084,652.08z
			 M626.458,634.77c-2.969-2.947-5.681-2.182-9.039,0.938c-0.719,0.668-1.08,0.997-1.806,1.652c3.157,3.507,4.735,5.263,7.892,8.77
			c1.022-0.923,1.531-1.392,2.54-2.337C629.247,640.79,629.178,637.47,626.458,634.77z"/>
	</g>
</g>
<path fill="#FFFFFF" d="M488.123,616.643c-3.27-5.766-1.044-14.81,5.72-21.576c5.46-5.458,19.603-8.213,23.726-4.09
	c0.007,0.007,0.014,0.015,0.021,0.021c-1.085,3.158-5.643,8.62-16.002,12.252C492.097,606.58,489.537,613.131,488.123,616.643z
	 M519.745,594.252c-0.822,1.917-2.902,3.122-5.368,5.587c-2.477,2.479-6,4.913-10.988,6.663
	c-10.124,3.551-11.871,10.327-12.659,13.145c0.037,0.037,0.498,0.356-0.977-0.853c5.423,5.423,16.046,3.592,23.727-4.091
	C520.314,607.868,523.163,600.007,519.745,594.252z"/>
<text transform="matrix(1 0 0 1 428.4849 609)" fill="#FFFFFF" font-family="'Hermit-bold'" font-size="15">EST.       1994</text>
<text transform="matrix(1 0 0 1 415.4844 408)" fill="#FFFFFF" font-family="'Edmondsans-Bold'" font-size="20" letter-spacing="16">RESTFUL</text>
</svg>
